<?xml version="1.0" encoding="utf-8"?>
<!DOCTYPE svg PUBLIC "-//W3C//DTD SVG 1.1//EN" "http://www.w3.org/Graphics/SVG/1.1/DTD/svg11.dtd">

<svg
version="1.1"
xmlns="http://www.w3.org/2000/svg"
xmlns:xlink="http://www.w3.org/1999/xlink"
width="100%"
height="100%"
viewBox="0 0 256 256"
xml:space="preserve">

<path
class="logo"
fill="#000000"
d="M1.6 20.3l34.3 7.6 3-13.5 12.7 3.7L60 1.6l10.5 13.2 12-9.8 7.6 8.8c0 0 18.1-12.3 18.6-12.2 0.5 0.2 0.7 20.1 0.7 20.1l24.8 6.9 -15 10.1 9.3 7.8 -9.5 6.1 6.1 17.7 -26-2.2 2.4 20.1L82.8 69.5 72.4 90.9 59.7 77.4 46.5 97l-1.2-24L28.1 84.7l-1.9-13.2L2.3 74.2 17 53.9 3.1 49.3l11.8-6L1.6 20.3z"/>

</svg>
